<svg id="visual" viewBox="0 0 900 600" width="900" height="600" xmlns="http://www.w3.org/2000/svg" xmlns:xlink="http://www.w3.org/1999/xlink" version="1.1"><g stroke-width="1" stroke-linejoin="bevel"><path d="M402.7 321L373.7 209L267.1 266Z" fill="#114b3a" stroke="#114b3a"></path><path d="M267.1 266L268.1 397L402.7 321Z" fill="#12624a" stroke="#12624a"></path><path d="M373.7 209L282.1 130L267.1 266Z" fill="#136d53" stroke="#136d53"></path><path d="M535.3 235L422.7 136L373.7 209Z" fill="#125c46" stroke="#125c46"></path><path d="M373.7 209L422.7 136L282.1 130Z" fill="#13795b" stroke="#13795b"></path><path d="M282.1 130L156.6 212L267.1 266Z" fill="#13674e" stroke="#13674e"></path><path d="M267.1 266L151.6 395L268.1 397Z" fill="#114b3a" stroke="#114b3a"></path><path d="M402.7 321L535.3 235L373.7 209Z" fill="#13795b" stroke="#13795b"></path><path d="M151.6 395L261.1 481L268.1 397Z" fill="#13795b" stroke="#13795b"></path><path d="M268.1 397L418.7 511L402.7 321Z" fill="#136d53" stroke="#136d53"></path><path d="M402.7 321L546.3 378L535.3 235Z" fill="#12624a" stroke="#12624a"></path><path d="M156.6 212L151.6 395L267.1 266Z" fill="#136d53" stroke="#136d53"></path><path d="M535.3 235L512.3 127L422.7 136Z" fill="#125642" stroke="#125642"></path><path d="M422.7 136L377.7 0L282.1 130Z" fill="#12624a" stroke="#12624a"></path><path d="M418.7 511L546.3 378L402.7 321Z" fill="#11513e" stroke="#11513e"></path><path d="M261.1 481L418.7 511L268.1 397Z" fill="#12624a" stroke="#12624a"></path><path d="M282.1 130L134.6 112L156.6 212Z" fill="#13674e" stroke="#13674e"></path><path d="M0 328L90.6 452L151.6 395Z" fill="#12624a" stroke="#12624a"></path><path d="M228.1 0L134.6 112L282.1 130Z" fill="#11513e" stroke="#11513e"></path><path d="M484.3 0L377.7 0L422.7 136Z" fill="#11513e" stroke="#11513e"></path><path d="M418.7 511L543.3 494L546.3 378Z" fill="#104536" stroke="#104536"></path><path d="M377.7 0L228.1 0L282.1 130Z" fill="#104032" stroke="#104032"></path><path d="M0 328L151.6 395L156.6 212Z" fill="#12624a" stroke="#12624a"></path><path d="M151.6 395L90.6 452L261.1 481Z" fill="#13674e" stroke="#13674e"></path><path d="M261.1 481L416.7 600L418.7 511Z" fill="#104536" stroke="#104536"></path><path d="M512.3 127L484.3 0L422.7 136Z" fill="#136d53" stroke="#136d53"></path><path d="M546.3 378L638.9 386L535.3 235Z" fill="#125642" stroke="#125642"></path><path d="M535.3 235L644.9 114L512.3 127Z" fill="#12624a" stroke="#12624a"></path><path d="M512.3 127L630.9 0L484.3 0Z" fill="#104536" stroke="#104536"></path><path d="M623.9 494L638.9 386L546.3 378Z" fill="#12624a" stroke="#12624a"></path><path d="M638.9 386L659.9 202L535.3 235Z" fill="#136d53" stroke="#136d53"></path><path d="M418.7 511L476.3 600L543.3 494Z" fill="#104032" stroke="#104032"></path><path d="M240.1 600L416.7 600L261.1 481Z" fill="#13795b" stroke="#13795b"></path><path d="M90.6 452L240.1 600L261.1 481Z" fill="#11513e" stroke="#11513e"></path><path d="M0 159L156.6 212L134.6 112Z" fill="#11513e" stroke="#11513e"></path><path d="M0 159L0 236L156.6 212Z" fill="#136d53" stroke="#136d53"></path><path d="M659.9 202L644.9 114L535.3 235Z" fill="#104032" stroke="#104032"></path><path d="M0 236L0 328L156.6 212Z" fill="#125642" stroke="#125642"></path><path d="M416.7 600L476.3 600L418.7 511Z" fill="#11513e" stroke="#11513e"></path><path d="M543.3 494L623.9 494L546.3 378Z" fill="#137357" stroke="#137357"></path><path d="M612.9 600L623.9 494L543.3 494Z" fill="#13795b" stroke="#13795b"></path><path d="M228.1 0L111.6 0L134.6 112Z" fill="#11513e" stroke="#11513e"></path><path d="M0 0L0 159L134.6 112Z" fill="#12624a" stroke="#12624a"></path><path d="M741.4 84L630.9 0L644.9 114Z" fill="#11513e" stroke="#11513e"></path><path d="M644.9 114L630.9 0L512.3 127Z" fill="#114b3a" stroke="#114b3a"></path><path d="M0 328L0 497L90.6 452Z" fill="#104536" stroke="#104536"></path><path d="M90.6 452L89.6 600L240.1 600Z" fill="#125642" stroke="#125642"></path><path d="M638.9 386L738.4 366L659.9 202Z" fill="#12624a" stroke="#12624a"></path><path d="M659.9 202L741.4 84L644.9 114Z" fill="#104536" stroke="#104536"></path><path d="M766.4 458L738.4 366L638.9 386Z" fill="#13795b" stroke="#13795b"></path><path d="M0 497L89.6 600L90.6 452Z" fill="#137357" stroke="#137357"></path><path d="M476.3 600L612.9 600L543.3 494Z" fill="#114b3a" stroke="#114b3a"></path><path d="M623.9 494L766.4 458L638.9 386Z" fill="#12624a" stroke="#12624a"></path><path d="M111.6 0L0 0L134.6 112Z" fill="#125c46" stroke="#125c46"></path><path d="M801.4 261L741.4 84L659.9 202Z" fill="#11513e" stroke="#11513e"></path><path d="M900 275L801.4 261L900 320Z" fill="#13795b" stroke="#13795b"></path><path d="M738.4 366L801.4 261L659.9 202Z" fill="#125c46" stroke="#125c46"></path><path d="M752.4 600L766.4 458L623.9 494Z" fill="#12624a" stroke="#12624a"></path><path d="M0 497L0 600L89.6 600Z" fill="#136d53" stroke="#136d53"></path><path d="M900 0L763.4 0L741.4 84Z" fill="#12624a" stroke="#12624a"></path><path d="M741.4 84L763.4 0L630.9 0Z" fill="#137357" stroke="#137357"></path><path d="M612.9 600L752.4 600L623.9 494Z" fill="#125642" stroke="#125642"></path><path d="M900 320L801.4 261L738.4 366Z" fill="#104536" stroke="#104536"></path><path d="M900 320L738.4 366L766.4 458Z" fill="#11513e" stroke="#11513e"></path><path d="M801.4 261L900 147L741.4 84Z" fill="#104032" stroke="#104032"></path><path d="M900 482L900 320L766.4 458Z" fill="#125642" stroke="#125642"></path><path d="M900 275L900 147L801.4 261Z" fill="#104536" stroke="#104536"></path><path d="M752.4 600L900 482L766.4 458Z" fill="#125642" stroke="#125642"></path><path d="M900 147L900 0L741.4 84Z" fill="#125c46" stroke="#125c46"></path><path d="M752.4 600L900 600L900 482Z" fill="#12624a" stroke="#12624a"></path></g></svg>